<svg width="20" height="22" viewBox="0 0 20 22" fill="none" xmlns="http://www.w3.org/2000/svg">
<path d="M9.99901 0C9.20885 0 8.57046 0.614453 8.57046 1.375V2.2C5.31158 2.83594 2.85625 5.61172 2.85625 8.9375V9.74531C2.85625 11.7648 2.08394 13.7156 0.691101 15.2281L0.360748 15.5848C-0.0142472 15.9887 -0.103532 16.5688 0.124144 17.0629C0.351819 17.557 0.865206 17.875 1.4277 17.875H18.5703C19.1328 17.875 19.6417 17.557 19.8739 17.0629C20.106 16.5688 20.0123 15.9887 19.6373 15.5848L19.3069 15.2281C17.9141 13.7156 17.1418 11.7691 17.1418 9.74531V8.9375C17.1418 5.61172 14.6865 2.83594 11.4276 2.2V1.375C11.4276 0.614453 10.7892 0 9.99901 0ZM12.0213 21.1965C12.557 20.6809 12.8561 19.9805 12.8561 19.25H9.99901H7.14191C7.14191 19.9805 7.44101 20.6809 7.97672 21.1965C8.51243 21.7121 9.2401 22 9.99901 22C10.7579 22 11.4856 21.7121 12.0213 21.1965Z" fill="black"/>
</svg>
