<svg width="188" height="161" viewBox="0 0 188 161" fill="none" xmlns="http://www.w3.org/2000/svg">
<path d="M17.4781 94.9599L83.8289 156.992C86.5828 159.566 90.218 161 94 161C97.782 161 101.417 159.566 104.171 156.992L170.522 94.9599C181.684 84.5538 188 69.9558 188 54.696V52.5633C188 26.8606 169.457 4.94532 144.158 0.716699C127.414 -2.07787 110.377 3.40096 98.4062 15.3882L94 19.8007L89.5938 15.3882C77.6234 3.40096 60.5859 -2.07787 43.8422 0.716699C18.543 4.94532 0 26.8606 0 52.5633V54.696C0 69.9558 6.31562 84.5538 17.4781 94.9599Z" fill="#E14949"/>
</svg>
