<svg width="34" height="34" viewBox="0 0 34 34" fill="none" xmlns="http://www.w3.org/2000/svg">
<path d="M26.4961 25.5133C25.0285 22.9633 22.2727 21.25 19.125 21.25H14.875C11.7273 21.25 8.97148 22.9633 7.50391 25.5133C9.84141 28.1164 13.2281 29.75 17 29.75C20.7719 29.75 24.1586 28.1098 26.4961 25.5133ZM0 17C0 12.4913 1.79107 8.1673 4.97919 4.97919C8.1673 1.79107 12.4913 0 17 0C21.5087 0 25.8327 1.79107 29.0208 4.97919C32.2089 8.1673 34 12.4913 34 17C34 21.5087 32.2089 25.8327 29.0208 29.0208C25.8327 32.2089 21.5087 34 17 34C12.4913 34 8.1673 32.2089 4.97919 29.0208C1.79107 25.8327 0 21.5087 0 17ZM17 18.0625C18.2681 18.0625 19.4842 17.5588 20.3809 16.6621C21.2775 15.7654 21.7812 14.5493 21.7812 13.2812C21.7812 12.0132 21.2775 10.7971 20.3809 9.9004C19.4842 9.00374 18.2681 8.5 17 8.5C15.7319 8.5 14.5158 9.00374 13.6191 9.9004C12.7225 10.7971 12.2188 12.0132 12.2188 13.2812C12.2188 14.5493 12.7225 15.7654 13.6191 16.6621C14.5158 17.5588 15.7319 18.0625 17 18.0625Z" fill="#ACC830"/>
</svg>
