<svg width="160" height="137" viewBox="0 0 160 137" fill="none" xmlns="http://www.w3.org/2000/svg">
<path d="M0 11.4167C0 5.10182 5.10714 0 11.4286 0H148.571C154.893 0 160 5.10182 160 11.4167C160 17.7315 154.893 22.8333 148.571 22.8333H11.4286C5.10714 22.8333 0 17.7315 0 11.4167ZM0 68.5C0 62.1852 5.10714 57.0833 11.4286 57.0833H148.571C154.893 57.0833 160 62.1852 160 68.5C160 74.8148 154.893 79.9167 148.571 79.9167H11.4286C5.10714 79.9167 0 74.8148 0 68.5ZM160 125.583C160 131.898 154.893 137 148.571 137H11.4286C5.10714 137 0 131.898 0 125.583C0 119.268 5.10714 114.167 11.4286 114.167H148.571C154.893 114.167 160 119.268 160 125.583Z" fill="black"/>
</svg>
