<svg width="52" height="52" viewBox="0 0 52 52" fill="none" xmlns="http://www.w3.org/2000/svg">
<path d="M40.5234 39.0203C38.2789 35.1203 34.0641 32.5 29.25 32.5H22.75C17.9359 32.5 13.7211 35.1203 11.4766 39.0203C15.0516 43.0016 20.2313 45.5 26 45.5C31.7687 45.5 36.9484 42.9914 40.5234 39.0203ZM0 26C0 19.1044 2.73928 12.4912 7.61522 7.61522C12.4912 2.73928 19.1044 0 26 0C32.8956 0 39.5088 2.73928 44.3848 7.61522C49.2607 12.4912 52 19.1044 52 26C52 32.8956 49.2607 39.5088 44.3848 44.3848C39.5088 49.2607 32.8956 52 26 52C19.1044 52 12.4912 49.2607 7.61522 44.3848C2.73928 39.5088 0 32.8956 0 26ZM26 27.625C27.9394 27.625 29.7994 26.8546 31.1707 25.4832C32.5421 24.1119 33.3125 22.2519 33.3125 20.3125C33.3125 18.3731 32.5421 16.5131 31.1707 15.1418C29.7994 13.7704 27.9394 13 26 13C24.0606 13 22.2006 13.7704 20.8293 15.1418C19.4579 16.5131 18.6875 18.3731 18.6875 20.3125C18.6875 22.2519 19.4579 24.1119 20.8293 25.4832C22.2006 26.8546 24.0606 27.625 26 27.625Z" fill="#ACC830"/>
</svg>
